<?xml version="1.0" encoding="UTF-8"?>
<svg width="540px" height="401px" viewBox="0 0 540 401" version="1.1" xmlns="http://www.w3.org/2000/svg" xmlns:xlink="http://www.w3.org/1999/xlink">
    <!-- Generator: Sketch 47.1 (45422) - http://www.bohemiancoding.com/sketch -->
    <title>logo/vertical/black</title>
    <desc>Created with Sketch.</desc>
    <defs>
        <polygon id="path-1" points="0.00147956153 93.4368932 136.541575 93.4368932 136.541575 1.32796033 0.00147956153 1.32796033"></polygon>
        <polygon id="path-3" points="3.58526866 93.4368932 140.142857 93.4368932 140.142857 1.32796033 3.58526866 1.32796033 3.58526866 93.4368932"></polygon>
    </defs>
    <g id="Symbols" stroke="none" stroke-width="1" fill="none" fill-rule="evenodd">
        <g id="logo/vertical/black">
            <g id="Page-1" transform="translate(-3.000000, 0.000000)">
                <g id="Group-3" transform="translate(0.000000, 306.967447)">
                    <mask id="mask-2" fill="white">
                        <use xlink:href="#path-1"></use>
                    </mask>
                    <g id="Clip-2"></g>
                    <path d="M95.4135393,32.1053058 C93.4165036,22.3645097 85.420575,19.7911019 76.4903607,18.9618495 C47.6170393,16.2716456 42.4862536,37.8594612 42.4862536,46.965665 C42.4862536,62.5501602 47.0408964,75.4133058 75.4237179,75.4133058 C80.6284679,75.4133058 95.0592893,70.0601505 95.0592893,61.3082282 L135.836968,61.3082282 C134.209754,87.2408592 90.5825036,93.4388398 71.5814679,93.4388398 C32.1662893,93.4388398 -1.56921071,86.1196165 0.0580035714,47.3199466 C1.21028929,19.6431602 27.405325,0.184927184 79.4917536,1.38014078 C108.528575,2.07702427 136.393646,11.1248301 136.541575,32.1053058 L95.4135393,32.1053058 Z" id="Fill-1" fill="#333333" mask="url(#mask-2)"></path>
                </g>
                <g id="Group-6" transform="translate(404.857143, 306.967447)">
                    <mask id="mask-4" fill="white">
                        <use xlink:href="#path-3"></use>
                    </mask>
                    <g id="Clip-5"></g>
                    <path d="M99.0440179,32.1053058 C97.0041607,22.3645097 89.0199107,19.7911019 80.0896964,18.9618495 C51.2319464,16.2716456 46.1167321,37.8594612 46.1167321,46.965665 C46.1167321,62.5501602 50.6363393,75.4133058 78.9958036,75.4133058 C84.2278036,75.4133058 98.6741964,70.0601505 98.6741964,61.3082282 L139.463554,61.3082282 C137.805196,87.2408592 94.1935179,93.4388398 75.1808036,93.4388398 C35.765625,93.4388398 2.01455357,86.1196165 3.64176786,47.3199466 C4.809625,19.6431602 31.0046607,0.184927184 83.1027679,1.38014078 C112.108446,2.07702427 140.024125,11.1248301 140.144804,32.1053058 L99.0440179,32.1053058 Z" id="Fill-4" fill="#333333" mask="url(#mask-4)"></path>
                </g>
                <polygon id="Fill-7" fill="#333333" points="143.846132 310.227226 196.777311 310.227226 241.922775 373.526828 242.280918 373.526828 242.280918 310.227226 276.226632 310.227226 276.226632 398.112411 225.514382 398.112411 178.103275 334.828382 177.760704 334.828382 177.760704 398.112411 143.846132 398.112411"></polygon>
                <path d="M323.917246,379.704175 L334.560318,379.704175 C354.371068,379.704175 361.646818,377.605738 361.646818,370.788738 C361.646818,363.469515 352.479139,361.059621 337.694068,361.059621 L323.917246,361.059621 L323.917246,379.704175 Z M323.917246,344.338311 L334.560318,344.338311 C351.003746,344.338311 359.692604,343.080806 359.692604,336.252126 C359.692604,328.991301 352.479139,326.52301 337.694068,326.52301 L323.917246,326.52301 L323.917246,344.338311 Z M286.705425,310.226058 L351.003746,310.226058 C381.905246,310.226058 400.084889,318.845612 400.084889,331.872272 C400.084889,339.592495 392.470461,349.084126 375.485925,351.891126 L375.485925,352.159757 C395.931211,353.343291 403.459996,366.233689 403.459996,373.965592 C403.459996,389.48001 385.774746,398.115136 351.178925,398.115136 L286.705425,398.115136 L286.705425,310.226058 Z" id="Fill-9" fill="#333333"></path>
                <path d="M379.075139,31.2262204 C376.089318,23.9653951 370.830068,17.5065699 364.574246,11.9237155 C349.181889,-1.25088641 324.197532,-4.03842039 306.430532,6.23185146 C289.457675,15.2718709 279.429675,32.4525796 279.312889,51.0893466 L279.994139,51.7706573 L302.198996,51.9925699 C303.662711,52.9970165 305.986746,52.872434 306.430532,54.9981233 C297.406889,61.9280262 281.991175,68.0637155 283.883104,82.4413175 L307.668461,232.44257 L308.248496,231.776832 L373.963818,83.920735 C382.430782,69.181065 387.238461,47.6360748 379.075139,31.2262204" id="Fill-11" fill="#645FA9"></path>
                <path d="M237.814643,231.553362 L264.589714,59.7968864 C266.497214,47.2958087 263.375143,36.0171971 258.010786,26.0973136 C252.214321,16.5083524 242.855893,8.67911942 233.010857,4.4511 C214.473071,-3.3703466 191.174321,0.538430097 177.008214,14.9393913 C162.919964,28.7797311 157.135179,48.9776728 163.36375,68.2840709 L230.573929,218.261964 L237.460393,232.102304 C237.713429,231.997187 237.915857,231.779168 237.814643,231.553362" id="Fill-13" fill="#C8234A"></path>
                <path d="M476.297689,98.4108505 C485.329118,113.820151 483.335975,137.120977 473.269046,151.432394 C467.044368,161.472967 456.767225,166.48352 448.043332,173.078608 L308.881475,268.606151 L308.554475,268.606151 L310.123296,264.02385 L383.881261,97.5232 C394.940868,77.8742 416.040154,67.9387437 438.346225,70.9637631 C453.637368,73.7512971 468.920725,83.6867534 476.297689,98.4108505" id="Fill-15" fill="#0088CF"></path>
                <path d="M80.9254929,161.914846 L235.7016,268.608098 L236.912279,268.608098 L160.156814,97.5212534 C147.185814,74.5240981 119.75285,65.0402534 95.4302786,73.9790495 C80.5712429,79.5619039 68.0790643,93.6202631 64.0733143,108.671389 C58.7050643,128.764215 65.1944571,148.623448 80.9254929,161.914846" id="Fill-17" fill="#F26F21"></path>
                <path d="M510.333718,271.622217 C521.377754,257.781877 524.375254,235.442673 516.675182,219.145721 C511.649504,207.999479 500.944146,196.853236 489.573111,192.383838 C474.834754,185.348818 454.327182,186.91778 440.787825,195.611304 L302.556361,291.816265 L467.590146,291.699469 C484.757646,292.131615 499.363646,284.882469 510.333718,271.622217" id="Fill-19" fill="#0DB04B"></path>
                <path d="M242.148561,291.818212 L103.913204,195.609357 C90.3738464,186.915833 69.866275,185.350765 55.1279179,192.385784 C43.7568821,196.851289 33.0554179,208.001425 28.0141679,219.147668 C20.3296679,235.444619 23.3738821,257.783823 34.3712036,271.624163 C45.3373821,284.884416 59.947275,292.129668 77.1108821,291.701416 L242.148561,291.818212 Z" id="Fill-21" fill="#FCB813"></path>
            </g>
        </g>
    </g>
</svg>